<svg width="612" height="823" viewBox="0 0 612 823" fill="none" xmlns="http://www.w3.org/2000/svg">
<path d="M427.853 43.3665C442.4 39.3665 457.667 39.7398 472.6 40.4465C489.507 42.6998 507.16 46.7132 520.733 57.6465C508.8 61.4732 496.467 68.0998 490.667 79.7798C489.347 82.3798 487.8 84.8732 485.973 87.1665C474.733 77.9932 461.387 70.1532 446.52 69.7398C434.227 69.9532 421.693 74.6065 413.013 83.4732C400.613 95.1665 393.467 112.02 393.013 128.993C392.347 147.26 401.16 164.86 414.213 177.246C426.48 188.766 442.893 194.633 459.187 197.607C459.56 197.207 460.32 196.42 460.693 196.033C460.773 196.766 460.947 198.26 461.04 198.993C470.16 199.113 479.32 199.473 488.413 198.607C496.227 213.727 502.813 229.62 506.4 246.3C515.787 285.06 517.68 325.727 510.4 365.007C506.04 384.113 500.693 403.18 492.16 420.887C490.667 419.98 488.06 420.22 486.5 419.5C466.06 416.353 446.813 411.62 426.48 407.82C414.147 405.073 401.64 403.14 389.093 401.713C395.04 394.22 399.573 385.74 404.387 377.5C417.96 354.047 425.08 326.82 424.173 299.7C423.893 282.273 418.4 265.087 409.067 250.42C408.293 247.327 407.707 244.153 406.267 241.286C393.827 217.66 382.173 193.606 368.987 170.366C358.747 151.233 347.453 132.646 337.707 113.273C343.467 101.206 352.52 90.8598 361.613 81.1132C371.64 71.5798 382.36 62.5531 394.627 56.0065C405.187 50.5931 416.28 46.0998 427.853 43.3665Z" fill="#69BD9A"/>
<path d="M490.667 79.7798C496.467 68.0998 508.8 61.4732 520.733 57.6465C521.293 57.9665 522.387 58.6065 522.933 58.9265C508.013 63.5931 492.52 73.2465 488.787 89.4998L488.253 89.0198C487.48 88.3798 486.72 87.7665 485.973 87.1665C487.8 84.8732 489.347 82.3798 490.667 79.7798Z" fill="#98A487"/>
<path d="M488.787 89.4999C492.52 73.2465 508.013 63.5932 522.933 58.9265C523.947 59.7665 525.013 60.6198 526.067 61.4465C525.333 61.6198 523.88 61.9665 523.16 62.1265C516.507 63.9932 509.627 66.1132 504.36 70.7798C501.213 73.5932 498.373 76.7132 495.547 79.8198C490.653 85.6598 490.747 93.7399 490.84 100.94C490.76 106.233 493.187 111.033 495.027 115.86L494.92 116.313L494.48 118.153C493.987 118.513 493.013 119.22 492.52 119.58C492.48 118.087 492.267 116.62 491.893 115.18C488.92 106.927 488.613 98.1799 488.787 89.4999Z" fill="#AA5D4B"/>
<path d="M504.36 70.7798C509.627 66.1132 516.507 63.9932 523.16 62.1265C524.453 66.8732 527.24 71.9265 525.213 76.8865C523.213 82.7932 519.613 87.9532 516.173 93.0865C515.92 92.2599 515.413 90.6199 515.16 89.7932C513.24 89.0199 511.013 88.7665 509.387 87.4865C508.773 85.9798 508.467 84.3799 508.093 82.8065C504.333 84.1799 500.4 84.8998 496.413 84.9665C496.12 83.2465 495.827 81.5398 495.547 79.8198C498.373 76.7132 501.213 73.5932 504.36 70.7798Z" fill="#DF3E38"/>
<path d="M523.16 62.1265C523.88 61.9665 525.333 61.6198 526.067 61.4465C527.933 62.3531 530.267 63.2198 531.213 65.2465L532.053 66.9798C530.747 66.8465 529.467 66.7131 528.2 66.5665C528.347 70.1665 529.053 73.8998 528.093 77.4465C524.373 87.4865 517.36 95.7265 511.147 104.273C506.947 110.02 499.787 114.3 499.267 122.06C497.96 120.033 496.44 118.166 494.92 116.313L495.027 115.86C502.987 109.206 510.2 101.593 516.173 93.0865C519.613 87.9532 523.213 82.7931 525.213 76.8865C527.24 71.9265 524.453 66.8732 523.16 62.1265Z" fill="#F5872B"/>
<path d="M528.2 66.5665C529.467 66.7131 530.747 66.8465 532.053 66.9798C536.107 71.0998 538.64 76.6332 543.613 79.8332C551 87.8332 554.88 98.1665 559.88 107.673C562.653 113.566 563.187 120.166 565.28 126.286C570.413 140.726 569.173 156.726 564.84 171.193C562.587 181.766 558.453 191.86 553.293 201.326C548.147 208.646 543.547 217.06 535.36 221.42C536.8 208.446 536.707 195.406 536.773 182.38C537.027 176.033 531.253 172.206 527.96 167.553C524.547 163.393 522.36 157.273 516.467 156.126C516.333 155.953 516.093 155.606 515.973 155.42C517.44 149.793 512 146.38 509.72 141.953C506.107 135.393 502.453 128.846 499.267 122.06C499.787 114.3 506.947 110.02 511.147 104.273C517.36 95.7265 524.373 87.4865 528.093 77.4465C529.053 73.8998 528.347 70.1665 528.2 66.5665Z" fill="#E9A211"/>
<path d="M531.213 65.2465C536.12 67.1399 539.16 71.7265 542.893 75.2065C549.547 83.0999 556.133 91.3932 559.987 101.087C569.613 120.22 573.493 142.46 569.56 163.633C566.467 186.313 554.76 206.82 540.32 224.18C537.547 227.3 534.84 230.74 530.973 232.527C533.053 226.713 532.64 220.393 533.56 214.353C534.013 203.46 535.067 191.407 535 180.5C524.895 183.284 522.186 164.91 516.467 156.127C522.36 157.273 524.547 163.393 527.96 167.553C531.253 172.207 537.027 176.033 536.773 182.38C536.707 195.407 536.8 208.447 535.36 221.42C543.547 217.06 548.147 208.647 553.293 201.327C558.453 191.86 562.587 181.767 564.84 171.193C569.173 156.727 570.413 140.727 565.28 126.287C563.187 120.167 562.653 113.567 559.88 107.673C554.88 98.1665 551 87.8332 543.613 79.8332C538.64 76.6332 536.107 71.0999 532.053 66.9799L531.213 65.2465Z" fill="#D6A546"/>
<path d="M494.92 116.313C496.44 118.167 497.96 120.033 499.267 122.06C502.453 128.847 506.107 135.393 509.72 141.953C512 146.38 517.44 149.793 515.973 155.42C507.307 143.953 500.36 131.246 494.48 118.153L494.92 116.313Z" fill="#D6A546"/>
<path d="M413.013 83.4731C421.693 74.6065 434.227 69.9531 446.52 69.7398C461.387 70.1531 474.733 77.9932 485.973 87.1665C486.72 87.7665 487.48 88.3798 488.253 89.0198C487.067 97.8598 487.28 107.273 491.893 115.18C492.267 116.62 492.48 118.086 492.52 119.58C478.867 134.153 471.08 153.086 465.453 171.98C463.307 179.86 461.213 187.846 460.693 196.033C460.32 196.42 459.56 197.206 459.187 197.606C442.893 194.633 426.48 188.766 414.213 177.246C401.16 164.86 392.347 147.26 393.013 128.993C393.467 112.02 400.613 95.1665 413.013 83.4731ZM438.88 81.6998C429.147 84.9665 423.333 98.1932 429.68 106.98C433.28 114.033 442.2 115.553 449.36 114.62C456.373 112.966 461.813 106.833 462.973 99.7665C463.053 93.0731 459.96 85.9931 453.88 82.7131C449.213 80.5931 443.787 80.0198 438.88 81.6998Z" fill="#FAFAFA"/>
<path d="M490.84 100.94C490.747 93.7398 490.653 85.6598 495.547 79.8198C495.827 81.5398 496.12 83.2465 496.413 84.9665C500.4 84.8998 504.333 84.1798 508.093 82.8065C508.467 84.3798 508.773 85.9798 509.387 87.4865C511.013 88.7665 513.24 89.0198 515.16 89.7932C515.413 90.6198 515.92 92.2598 516.173 93.0865C510.2 101.593 502.987 109.206 495.027 115.86C493.187 111.033 490.76 106.233 490.84 100.94Z" fill="#E04B3B"/>
<path d="M438.88 81.6998C443.787 80.0198 449.213 80.5931 453.88 82.7131C459.96 85.9931 463.053 93.0732 462.973 99.7665C461.813 106.833 456.373 112.966 449.36 114.62C442.2 115.553 433.28 114.033 429.68 106.98C423.333 98.1932 429.147 84.9665 438.88 81.6998ZM441.453 88.2065C434.733 90.3798 432.107 98.9798 436.24 104.66C440.453 113.473 454.933 108.7 455.6 99.7665C456.907 92.1532 448.493 85.9532 441.453 88.2065Z" fill="#E5B540"/>
<path d="M441.453 88.2065C448.493 85.9532 456.907 92.1532 455.6 99.7665C454.933 108.7 440.453 113.473 436.24 104.66C432.107 98.9798 434.733 90.3798 441.453 88.2065ZM437.56 98.3798C436.747 103.367 443.813 107.993 447.72 104.367C445.053 102.5 441.547 99.6065 444.907 96.4599C447.36 98.2732 449.733 100.5 452.907 100.967C453 97.4465 452.533 93.5398 449.133 91.6332C444.307 87.9265 437.227 92.7532 437.56 98.3798Z" fill="#1E2315"/>
<path d="M488.253 89.0198L488.787 89.4998C488.613 98.1798 488.92 106.926 491.893 115.18C487.28 107.273 487.067 97.8598 488.253 89.0198Z" fill="#E3AEA0"/>
<path d="M437.56 98.3798C437.227 92.7532 444.307 87.9265 449.133 91.6332C452.533 93.5398 453 97.4465 452.907 100.966C449.733 100.5 447.36 98.2732 444.907 96.4598C441.547 99.6065 445.053 102.5 447.72 104.367C443.813 107.993 436.747 103.366 437.56 98.3798Z" fill="#0F2B3C"/>
<path d="M329.867 127.193C332.307 122.46 334.133 117.313 337.707 113.273C347.453 132.647 358.747 151.233 368.987 170.367C382.173 193.607 393.827 217.66 406.267 241.287C407.707 244.153 408.293 247.327 409.067 250.42C401.267 244.02 395.027 235.793 386.427 230.38C381.76 227.673 376.707 225.753 371.827 223.5C364.76 220.193 356.853 219.513 349.173 219.26C336.907 219.167 324.467 220.7 313.133 225.62C312.907 210.007 312.587 194.127 316.173 178.807C315.693 178.207 314.72 176.993 314.24 176.38C317.44 159.433 322.24 142.7 329.867 127.193Z" fill="#255350"/>
<path d="M492.52 119.58C493.013 119.22 493.987 118.513 494.48 118.153C500.36 131.247 507.307 143.953 515.973 155.42C516.093 155.607 516.333 155.953 516.467 156.127C522.04 164.687 528.467 172.647 535.267 180.26C534.28 180.967 533.293 181.66 532.32 182.367C519.48 191.713 503.853 195.953 488.413 198.607C479.32 199.473 470.16 199.113 461.04 198.993C460.947 198.26 460.773 196.767 460.693 196.033C461.213 187.847 463.307 179.86 465.453 171.98C471.08 153.087 478.867 134.153 492.52 119.58Z" fill="#192730"/>
<path d="M314.24 176.38C314.72 176.993 315.693 178.206 316.173 178.806C312.587 194.126 312.907 210.006 313.133 225.62C309.827 218.833 312.08 210.926 311.613 203.66C312.107 194.526 312.88 185.42 314.24 176.38Z" fill="#263731"/>
<path d="M192.16 519.02C192.44 518.766 193.013 518.273 193.307 518.02C198.013 523.166 201.747 529.26 207.387 533.5C215.213 539.553 224.373 544.193 234.267 545.553C240.427 546.633 247.427 546.767 251.987 551.687C237.613 582.18 221.853 612.006 207.48 642.473C205.027 636.486 206.093 629.94 205.053 623.713C202.707 607.3 201.427 590.753 198.827 574.38C197.08 562.42 196.707 550.326 194.88 538.393C194.013 531.926 192.64 525.526 192.16 519.02Z" fill="#263731"/>
<path d="M311.613 203.66C310.893 211.566 311.68 219.526 310.96 227.433L310.827 228.713C315.253 225.526 320.08 228.686 324.4 230.353C332.507 227.18 341.413 227.633 349.92 228.38C372.387 230.46 393.853 246.193 400.267 268.18C405.293 285.406 400.613 304.086 390.96 318.806C376.533 341.646 354.853 358.393 334.733 375.9C296.453 407.06 259.347 441.313 213.547 461.22C199.107 467.3 183.707 473.593 167.707 471.38C161.893 471.326 156.667 467.566 150.813 468.5C159.667 476.313 170.707 481.166 181.987 484.313C209.227 491.7 233.987 489.38 261 481.5C274.5 483.5 368 426 369.553 422.407C378.42 414.633 382.013 409.613 390 401C395.947 393.507 399.573 385.74 404.387 377.5C417.96 354.046 425.08 326.82 424.173 299.7C423.893 282.273 418.4 265.086 409.067 250.42C401.267 244.02 395.027 235.793 386.427 230.38C381.76 227.673 376.707 225.753 371.827 223.5C364.76 220.193 356.853 219.513 349.173 219.26C336.907 219.166 324.467 220.7 313.133 225.62C309.827 218.833 312.08 210.926 311.613 203.66Z" fill="#197361"/>
<path d="M310.827 228.713C315.253 225.526 320.08 228.686 324.4 230.353C316.093 235.78 311.453 244.806 306.267 252.926C301.987 259.473 298.16 266.273 293.973 272.873C292.693 265.686 298.8 261.113 301.813 255.406C304.213 250.793 308.56 246.78 307.827 241.126C301.027 238.166 292.96 239.566 287.733 244.846C272.44 255.433 258.693 268.286 247.36 283.06C242.44 289.78 236.613 295.766 231.84 302.593C231.547 302.086 230.96 301.086 230.667 300.58C234.96 293.286 240.08 286.446 245.707 280.113C263.56 258.353 285.52 239.713 310.96 227.433L310.827 228.713Z" fill="#0C987B"/>
<path d="M324.4 230.353C332.507 227.18 341.413 227.633 349.92 228.38C372.387 230.46 393.853 246.193 400.267 268.18C405.293 285.407 400.613 304.086 390.96 318.806C376.533 341.646 354.853 358.393 334.733 375.9C296.453 407.06 259.347 441.313 213.547 461.22C199.107 467.3 183.707 473.593 167.707 471.38C161.893 471.327 156.667 467.567 150.813 468.5C147.6 466.353 144.427 464.153 141.413 461.74C140.507 461.14 139.447 460.48 138.5 460C139.047 459.307 139.747 458.767 140.347 458.127C144.733 456.753 147.653 452.993 150.96 450.02C164.373 438.446 176.64 425.633 189.333 413.287C198.027 405.047 206.08 396.167 214.547 387.713C235.227 367.367 251.067 342.873 266.853 318.726C276.04 303.526 285.347 288.393 293.973 272.873C298.16 266.273 301.987 259.473 306.267 252.927C311.453 244.807 316.093 235.78 324.4 230.353Z" fill="#69BD9B"/>
<path d="M287.733 244.846C292.96 239.566 301.027 238.166 307.827 241.126C308.56 246.78 304.213 250.793 301.813 255.406C298.8 261.113 292.693 265.686 293.973 272.873C285.347 288.393 276.04 303.526 266.853 318.726C251.067 342.873 235.227 367.366 214.547 387.713C206.08 396.166 198.027 405.046 189.333 413.286C176.64 425.633 164.373 438.446 150.96 450.02C149.44 447.02 149.653 443.606 150.267 440.393C159.627 423.54 167.947 406.1 177.787 389.5C194.707 359.326 210.613 328.473 230.32 299.98L230.667 300.58C230.96 301.086 231.547 302.086 231.84 302.593C236.613 295.766 242.44 289.78 247.36 283.06C258.693 268.286 272.44 255.433 287.733 244.846Z" fill="#0BA282"/>
<path d="M385.94 410.347C386.647 409.573 389.253 400.747 390 400C403.333 401.867 431.707 408.133 445 410.347C453.533 412.427 458.033 412.507 466.5 415C475.98 416.787 483.033 418.62 492.5 420.5C481.193 444.393 460.3 477.2 441.087 495.467C429.433 507.907 415.073 517.307 400.86 526.533L397.793 528.173C397.66 527.347 397.927 529 397.793 528.173C383.34 535.587 368.42 542.107 352.887 546.933C351.14 559.813 352.433 572.827 351.927 585.773C350.007 583.52 348.54 580.947 347.18 578.347C342.847 579.547 338.34 579.587 333.9 579.133C334.007 573.453 333.127 567.84 331.78 562.347C329.66 556.227 338.82 554.173 337.793 548.04C333.913 548.867 330.033 549.68 326.14 550.467C325.42 549.867 324.713 549.293 323.993 548.72C314.353 552.493 303.793 552.547 293.593 552.493C285.207 551.84 276.62 552.413 268.5 549.907C295.313 525.48 320.153 498.92 343.02 470.787C353.047 459.813 363.713 449.2 371.393 436.373C376.433 427.813 382.367 419.693 385.94 410.347Z" fill="#EA8340"/>
<path d="M376 416C380.831 411.073 384.412 406.167 389.5 401.5C388 411 378.325 424.878 373.196 433.64C365.38 446.769 355.204 458.768 345 470C321.729 498.797 295.771 524.847 268.484 549.85C268.144 549.891 267.452 549.959 267.099 550C263.3 549.277 258.137 547.783 254.5 546.5C256.237 538.926 262.153 532.288 264.5 525C267.865 515.665 273.443 506.535 277.5 497.5C279.956 491.536 285.225 485.01 286.5 478.5C286.88 473.778 288 470.5 291 469C300.5 463.5 316 454.5 325.5 450C342.991 439.56 361.237 429.989 376 416Z" fill="#DD593B"/>
<path d="M140.347 458.127C143.347 452.047 146.52 446.046 150.267 440.393C149.653 443.606 149.44 447.02 150.96 450.02C147.653 452.993 144.733 456.753 140.347 458.127Z" fill="#39987E"/>
<path d="M138.5 460C138.5 460 156.5 471.5 159.5 474.5C177.012 488.729 198.544 485.19 219 489C245.5 486.5 266.795 469.715 291 469C291.133 470.013 284.227 483.913 284.36 484.927C277.813 497.833 271.32 510.78 265.36 523.953C261.4 531.207 257.88 538.673 254.56 546.233C253.707 548.047 252.84 549.86 251.987 551.687C247.427 546.767 240.427 546.633 234.267 545.553C224.373 544.193 215.213 539.553 207.387 533.5C201.747 529.26 198.013 523.167 193.307 518.02C193.013 518.273 192.44 518.767 192.16 519.02C183.547 525.74 176.173 533.847 167.907 540.967C158.693 548.98 150.16 557.713 141.08 565.847C132.56 572.193 125.453 580.353 116.973 586.62L115.893 586.58C114 586.06 112.08 585.967 110.147 586.1C112.44 589.78 107.307 591.553 105.44 593.913C105.253 593.1 104.867 591.473 104.68 590.66C101.613 594.433 98.7467 598.367 95.44 601.94C92.12 605.887 85.7334 604.62 82.6 608.9C79.2667 611.727 76.9733 617.647 71.76 616.593C69.3333 616.473 67.44 614.847 65.52 613.607C67.76 611.3 67.1867 607.967 67.9867 605.113C68.6133 602.967 69.7867 601.033 70.7867 599.06C72.6267 599.62 74.4533 600.207 76.32 600.74C75.4133 599.273 74.4134 597.887 73.44 596.487C75.4934 594.647 77.9733 592.847 78.0667 589.833C79.3467 581.287 84.8267 574.367 88.36 566.727C89.5067 564.58 88.7467 562.14 88.4933 559.9L88.4666 559.74C99.52 536.647 112.253 514.433 123.587 491.5C129.588 481.309 134.06 470.928 138.5 460Z" fill="#1A2931"/>
<path d="M167.907 540.967C176.173 533.847 183.547 525.74 192.16 519.02C192.64 525.526 194.013 531.926 194.88 538.393C196.707 550.326 197.08 562.42 198.827 574.38C201.427 590.753 202.707 607.3 205.053 623.713C206.093 629.94 205.027 636.486 207.48 642.473C195.627 666.86 181.827 690.406 165.813 712.313C152.227 731.633 136.907 749.847 119.173 765.513C112.733 770.9 106.067 776.113 98.6 780.02C94.5334 782.1 89.4667 783.153 85.2 781.087C79.4934 777.887 77.64 770.913 76.76 764.886C76.1333 754.206 79.0133 743.726 81.8267 733.54C85.48 719.953 90.8933 706.94 95.1733 693.566C103.507 669.526 112.413 645.686 120.653 621.62C124.333 610.433 128 599.233 132.627 588.406C135.707 580.993 139.04 573.633 141.08 565.847C150.16 557.713 158.693 548.98 167.907 540.967Z" fill="#255953"/>
<path d="M328.333 547.46C332.227 546.673 336.107 545.86 339.987 545.033C340.907 550.532 336.253 567.62 336.093 576.126C340.533 576.58 345.04 576.54 349.373 575.34C350.733 577.94 352.2 580.513 354.12 582.767C355.973 583.113 357.853 583.433 359.773 583.447C370.467 582.753 381.213 582.713 391.893 583.487C399.92 583.927 407.013 588.273 413.093 593.206C421.96 601.246 426.44 614.247 423.533 625.98C421.8 634.3 415.893 641.447 408.427 645.327C402.747 648.233 395.16 648.22 390.333 643.66C387.307 641.54 387 637.5 387.44 634.153C390.84 631.367 394.52 628.953 397.84 626.047C398.653 625.847 400.253 625.447 401.067 625.233C399.973 621.727 398.853 617.993 396.053 615.447C393.24 612.5 388.92 612.233 385.133 612.113C364.44 611.86 343.72 612.82 323.053 611.807C334.067 608.14 345.893 611.447 357.227 609.66C346.507 608.047 335.653 609.887 324.933 608.353C331.547 607.34 338.253 607.713 344.933 607.5C344.92 606.953 344.907 605.873 344.893 605.327C340.547 605.087 336.213 604.847 331.88 604.633C331.493 600.273 332.213 595.967 333.947 591.967C332.64 588.967 331.32 585.967 330.267 582.887L330.24 582.74C331.947 579.753 333.387 576.5 332.907 572.98C332.4 566.113 332.4 559.207 331.707 552.367C331.173 551.767 330.133 550.58 329.6 549.98C329.493 549.847 329.28 549.593 329.173 549.46L328.333 547.46Z" fill="#EB8447"/>
<path d="M329.6 549.98C330.133 550.58 331.173 551.767 331.707 552.367C332.4 559.207 332.4 566.113 332.907 572.98C333.387 576.5 331.947 579.753 330.24 582.74C329.8 571.82 329.747 560.9 329.6 549.98Z" fill="#D38654"/>
<path d="M88.4933 559.9C88.7467 562.14 89.5067 564.58 88.36 566.726C84.8267 574.366 79.3467 581.286 78.0667 589.833C77.9733 592.846 75.4934 594.646 73.44 596.486C74.4134 597.886 75.4133 599.273 76.32 600.74C74.4533 600.206 72.6267 599.62 70.7867 599.06C69.7867 601.033 68.6133 602.966 67.9867 605.113C67.1867 607.966 67.76 611.3 65.52 613.606C67.44 614.846 69.3333 616.473 71.76 616.593C76.9733 617.646 79.2667 611.726 82.6 608.9C85.7334 604.62 92.12 605.886 95.44 601.94C98.7467 598.366 101.613 594.433 104.68 590.66C104.867 591.473 105.253 593.1 105.44 593.913C107.307 591.553 112.44 589.78 110.147 586.1C112.08 585.966 114 586.06 115.893 586.58L116.147 587.42C111 593.02 104.467 597.38 99.1466 602.926C81.0133 618.126 63.6533 634.206 45.5733 649.473C43.8533 650.953 41.96 652.22 40 653.353C43.44 645.886 48.1867 639.1 51.6267 631.633C63.5867 607.553 76.0267 583.713 88.4933 559.9Z" fill="#12232A"/>
<path d="M281.387 587.78C288 583.5 296.133 582.993 303.813 582.847C311.693 582.82 319.587 582.78 327.48 583.1C320.027 585.727 312.013 584.273 304.307 584.78C295.6 584.22 287.253 587.406 279.827 591.646C274.227 596.26 268.067 601.407 266.24 608.767C263.52 618.873 265.48 630.833 273.533 638.06C277.747 643.406 286.307 639.953 289.947 646.167C293.293 643.887 296.867 641.153 297.88 637.007C297.027 632.9 292.613 631.073 290.16 628.02C288.053 626.18 288.72 623.153 288.52 620.713L290 621.26C289.973 622.34 289.933 624.5 289.92 625.58C292.867 628.086 296.04 630.353 299.373 632.353C300.24 637.607 298.96 644.166 293.507 646.393C283.987 649.593 273.947 644.06 268.067 636.7C262.653 629.367 262.173 619.62 263.427 610.913C265.147 600.753 273.027 593.087 281.387 587.78Z" fill="#CB765E"/>
<path d="M327.48 583.1C328.173 583.047 329.573 582.94 330.267 582.886C331.32 585.966 332.64 588.966 333.947 591.966C332.213 595.966 331.493 600.273 331.88 604.633C336.213 604.846 340.547 605.086 344.893 605.326C344.907 605.873 344.92 606.953 344.933 607.5C338.253 607.713 331.547 607.34 324.933 608.353C335.653 609.887 346.507 608.046 357.227 609.66C345.893 611.446 334.067 608.14 323.053 611.806C316.227 612.446 309.387 611.926 302.573 612.22C299.467 609.46 296.813 606.26 294.68 602.7C297.387 601.02 300.08 599.34 302.747 597.593C297.88 594.127 291.093 597.007 286.4 593.033C288.24 591.3 289.947 589.3 292.253 588.14C295.413 587.42 298.693 588.126 301.893 588.326C302.693 587.14 303.493 585.953 304.307 584.78C312.013 584.273 320.027 585.727 327.48 583.1Z" fill="#E97B49"/>
<path d="M279.827 591.647C287.253 587.407 295.6 584.22 304.307 584.78C303.493 585.953 302.693 587.14 301.893 588.327C298.693 588.127 295.413 587.42 292.253 588.14C289.947 589.3 288.24 591.3 286.4 593.033C291.093 597.007 297.88 594.127 302.747 597.593C300.08 599.34 297.387 601.02 294.68 602.7C296.813 606.26 299.467 609.46 302.573 612.22C297.027 613.113 290.813 615.006 288.52 620.713C288.72 623.153 288.053 626.18 290.16 628.02C292.613 631.073 297.027 632.9 297.88 637.007C296.867 641.153 293.293 643.887 289.947 646.167C286.307 639.953 277.747 643.407 273.533 638.06C265.48 630.833 263.52 618.873 266.24 608.767C268.067 601.407 274.227 596.26 279.827 591.647Z" fill="#E77051"/>
</svg>
